<?xml version="1.0" encoding="UTF-8"?>
<svg version="1.1" xmlns="http://www.w3.org/2000/svg" width="900" height="500">
<path d="M0 0 C12.16968752 -0.06949845 24.33932786 -0.12281059 36.50917339 -0.15543652 C42.16007686 -0.17109501 47.81084458 -0.19233687 53.46166992 -0.22631836 C58.91462858 -0.2589049 64.36745663 -0.27685163 69.82050514 -0.28463173 C71.90133533 -0.29017648 73.98215835 -0.30100393 76.06293297 -0.31719017 C78.97660161 -0.33895483 81.88973 -0.3419673 84.8034668 -0.34057617 C86.09495636 -0.35675491 86.09495636 -0.35675491 87.41253662 -0.3732605 C92.08604791 -0.34910227 95.23728741 -0.08886009 99 3 C100.31299934 5.31660951 101.31840391 7.40349944 102.2890625 9.85546875 C102.58068268 10.55641159 102.87230286 11.25735443 103.17276001 11.97953796 C104.1349563 14.31217971 105.06984681 16.65440914 106 19 C106.32222534 19.80471741 106.64445068 20.60943481 106.97644043 21.4385376 C109.09979056 26.75029862 111.18240996 32.07729095 113.25006104 37.41094971 C115.20667813 42.45764386 117.17462016 47.49992611 119.140625 52.54296875 C119.54229889 53.57421875 119.94397278 54.60546875 120.3578186 55.66796875 C124.57918184 66.50057703 128.84755222 77.31443896 133.125 88.125 C133.46617859 88.98799713 133.80735718 89.85099426 134.15887451 90.74014282 C135.14965988 93.24624168 136.14111918 95.7520728 137.1328125 98.2578125 C137.44693085 99.05219223 137.76104919 99.84657196 138.08468628 100.6650238 C139.79655242 104.98740755 141.52399267 109.30300512 143.26855469 113.61230469 C143.82613968 114.99335892 143.82613968 114.99335892 144.39498901 116.40231323 C145.11250195 118.17770523 145.83286577 119.95194841 146.556427 121.72488403 C146.8766684 122.51805023 147.19690979 123.31121643 147.52685547 124.12841797 C147.81188934 124.82933563 148.09692322 125.5302533 148.39059448 126.25241089 C149 128 149 128 149 130 C149.66 130 150.32 130 151 130 C151.17187836 129.39373276 151.34375671 128.78746552 151.52084351 128.16282654 C153.31965495 121.97537461 155.4509777 116.01198137 157.8515625 110.03515625 C158.2229686 109.1004248 158.59437469 108.16569336 158.97703552 107.20263672 C160.18917887 104.15437775 161.40708683 101.10845768 162.625 98.0625 C163.47627227 95.9245738 164.32709595 93.78646894 165.17749023 91.64819336 C166.92417418 87.25700763 168.67269453 82.86655971 170.42236328 78.4765625 C173.96406137 69.58460437 177.47672025 60.68121516 180.9901123 51.77804565 C183.06212614 46.53120424 185.14065577 41.28693992 187.21780396 36.04212952 C188.96571284 31.62526679 190.70465078 27.20509476 192.43070984 22.77964783 C193.57393744 19.85118799 194.72550592 16.9260047 195.875 14 C196.26179932 12.99718994 196.64859863 11.99437988 197.04711914 10.96118164 C197.57680298 9.61914673 197.57680298 9.61914673 198.1171875 8.25 C198.41222168 7.49203125 198.70725586 6.7340625 199.01123047 5.953125 C200.75311188 2.5123716 202.33981154 1.22006282 206 0 C208.95639091 -0.10193729 211.88930063 -0.14682955 214.84594727 -0.14526367 C215.75025482 -0.14862228 216.65456238 -0.1519809 217.58627319 -0.15544128 C220.57966479 -0.16495161 223.57300048 -0.16689422 226.56640625 -0.16796875 C228.64241052 -0.17118049 230.71841455 -0.1745445 232.79441833 -0.17805481 C237.14639817 -0.18404573 241.49835813 -0.18589467 245.8503418 -0.18530273 C251.43831037 -0.18520094 257.02615239 -0.19887166 262.61409092 -0.21607494 C266.9007781 -0.2271678 271.18743438 -0.22922281 275.47413445 -0.22869301 C277.53509903 -0.22987652 279.59606433 -0.23431892 281.65701485 -0.24202538 C284.53258393 -0.25177368 287.40787413 -0.24896812 290.28344727 -0.24291992 C291.57001976 -0.25134918 291.57001976 -0.25134918 292.88258362 -0.25994873 C298.77168247 -0.22831753 298.77168247 -0.22831753 301 2 C301.19754968 4.60367224 301.26927222 7.10107052 301.25396729 9.70593262 C301.25708727 10.51069015 301.26020725 11.31544768 301.26342177 12.14459181 C301.27143458 14.85623345 301.26506543 17.56765334 301.25878906 20.27929688 C301.26149747 22.2172102 301.26505755 24.1551225 301.26940918 26.09303284 C301.27855334 31.36769938 301.2749806 36.64228798 301.26865101 41.91695595 C301.26360148 47.42669516 301.26827954 52.93642753 301.27142334 58.44616699 C301.27506605 67.70028893 301.27025591 76.95437899 301.26074219 86.20849609 C301.24985706 96.92057014 301.25338242 107.63256806 301.264395 118.34464025 C301.27345921 127.52765732 301.2747574 136.71065142 301.26951766 145.89367151 C301.26639318 151.38448491 301.26600168 156.87526248 301.27259064 162.36607361 C301.2783509 167.52718115 301.2743915 172.68819018 301.26280212 177.84928703 C301.26014845 179.74803949 301.26093261 181.64680017 301.26532745 183.54554939 C301.27075656 186.12850222 301.26398111 188.71113519 301.25396729 191.29406738 C301.25842873 192.05339427 301.26289017 192.81272117 301.26748681 193.59505796 C301.22830013 198.77169987 301.22830013 198.77169987 299 201 C296.9059906 201.24723816 296.9059906 201.24723816 294.29077148 201.24291992 C293.31313339 201.24599655 292.3354953 201.24907318 291.32823181 201.25224304 C290.26987625 201.24505753 289.21152069 201.23787201 288.12109375 201.23046875 C287.03868912 201.23001053 285.95628448 201.22955231 284.84107971 201.2290802 C282.55037339 201.22605559 280.25966916 201.21816309 277.96899414 201.20581055 C274.44865697 201.18755785 270.92858266 201.18530078 267.40820312 201.18554688 C265.18749771 201.18063175 262.96679409 201.17480346 260.74609375 201.16796875 C259.68571396 201.16685593 258.62533417 201.1657431 257.53282166 201.16459656 C256.55833572 201.15821671 255.58384979 201.15183685 254.57983398 201.14526367 C253.71760727 201.14145187 252.85538055 201.13764008 251.96702576 201.13371277 C250 201 250 201 249 200 C248.89786416 198.16153628 248.86645817 196.31912212 248.86196899 194.47782898 C248.85651566 193.27901093 248.85106232 192.08019287 248.84544373 190.845047 C248.84432382 189.50436407 248.84327331 188.16368108 248.84228516 186.82299805 C248.83761934 185.42048991 248.83247617 184.01798329 248.82688904 182.61547852 C248.81558884 179.58815845 248.80716394 176.56084835 248.80076981 173.53351402 C248.79011199 168.74779441 248.76987289 163.96214605 248.74765015 159.1764679 C248.68565203 145.565351 248.63170782 131.9542377 248.59863281 118.34301758 C248.58029845 110.83107515 248.55137634 103.31925143 248.5106281 95.80739623 C248.4895357 91.83002451 248.47409773 87.85280254 248.47182083 83.87537193 C248.46967626 80.1332937 248.45382685 76.39152712 248.42743111 72.64954376 C248.42022891 71.27572917 248.41814161 69.90187685 248.42153358 68.52804756 C248.42542355 66.65305055 248.40922588 64.77804385 248.39199829 62.90312195 C248.38703307 61.32880417 248.38703307 61.32880417 248.38196754 59.722682 C247.94436694 56.60344502 247.21329304 55.21757666 245 53 C242.04279372 52.33319632 242.04279372 52.33319632 239 53 C234.43476989 56.38500137 233.02416852 61.26787158 231.09375 66.3984375 C230.73237442 67.33258484 230.37099884 68.26673218 229.99867249 69.22918701 C228.82286808 72.27419917 227.66158834 75.32454006 226.5 78.375 C225.68863344 80.48207626 224.87604503 82.58868242 224.06225586 84.69482422 C222.84235809 87.8523947 221.62317423 91.01021615 220.40794373 94.16958618 C217.19667007 102.51713733 213.90541542 110.82945022 210.5625 119.125 C206.85990084 128.34031599 203.18963911 137.56720945 199.5625 146.8125 C199.12228516 147.93237305 198.68207031 149.05224609 198.22851562 150.20605469 C195.95405823 155.99722364 193.69098033 161.79241573 191.44667053 167.59532166 C190.27625153 170.61821227 189.10014463 173.63887364 187.92330933 176.65927124 C187.35549456 178.1208301 186.79027031 179.58339837 186.22781372 181.04702759 C185.44100726 183.0938696 184.64526871 185.13703656 183.84765625 187.1796875 C183.39398682 188.35257324 182.94031738 189.52545898 182.47290039 190.73388672 C178.67099358 199.16450321 178.67099358 199.16450321 175 201 C173.42356325 201.11021356 171.84263445 201.1590956 170.26245117 201.17700195 C169.27770309 201.18983719 168.29295502 201.20267242 167.27836609 201.21589661 C165.67684441 201.22697701 165.67684441 201.22697701 164.04296875 201.23828125 C162.94785477 201.246353 161.85274078 201.25442474 160.72444153 201.26274109 C158.4034687 201.27658904 156.08247545 201.287308 153.76147461 201.29516602 C150.21233517 201.31237955 146.66412684 201.3562606 143.11523438 201.40039062 C140.86198603 201.41051725 138.60872975 201.41903344 136.35546875 201.42578125 C134.76305611 201.45204338 134.76305611 201.45204338 133.13847351 201.47883606 C128.89427492 201.46634699 125.846328 201.42541764 122.02026367 199.50219727 C119.27048989 196.09646537 117.84306427 192.61751499 116.3203125 188.5390625 C115.82617355 187.27107819 115.82617355 187.27107819 115.322052 185.97747803 C114.24255074 183.19844326 113.18395737 180.41192022 112.125 177.625 C111.37229817 175.67730519 110.61804616 173.7302088 109.86230469 171.78369141 C108.31537862 167.79513799 106.7755971 163.80394043 105.24121094 159.81054688 C102.27077511 152.09194096 99.22564789 144.40326681 96.17730713 136.71517944 C94.63515906 132.82336938 93.09876988 128.92928966 91.5625 125.03515625 C91.26465607 124.28039505 90.96681213 123.52563385 90.65994263 122.7480011 C88.62230904 117.58271641 86.59098625 112.4149767 84.5625 107.24609375 C81.64401545 99.810299 78.71580968 92.3784158 75.77331543 84.9520874 C75.25216096 83.63653227 74.73141753 82.32081424 74.21105957 81.00494385 C72.44485195 76.53988715 70.66357591 72.08114512 68.875 67.625 C68.42543945 66.48909424 67.97587891 65.35318848 67.51269531 64.18286133 C67.09342773 63.14540771 66.67416016 62.1079541 66.2421875 61.0390625 C65.8797998 60.13365723 65.51741211 59.22825195 65.14404297 58.29541016 C63.99254048 55.98503321 63.02834696 54.58414602 61 53 C56.93169224 52.48376325 56.93169224 52.48376325 53.33699989 54.15963554 C51.44918299 56.75819307 51.61800362 58.62446751 51.60800171 61.8208313 C51.59690872 63.03514832 51.58581573 64.24946533 51.5743866 65.50057983 C51.57715552 66.84820614 51.58020133 68.19583191 51.58349609 69.54345703 C51.57611791 70.96098552 51.56741348 72.37850763 51.55747986 73.79602051 C51.53412726 77.64705987 51.52900584 81.49793814 51.52682066 85.34903955 C51.52116775 89.37385136 51.49790087 93.39855755 51.47622681 97.42330933 C51.43767799 105.04706166 51.41347428 112.67078385 51.39510214 120.29460895 C51.36170615 133.95886425 51.304076 147.62302946 51.24111044 161.28717697 C51.21956512 166.08636084 51.20432627 170.88551328 51.19427085 175.68473458 C51.18727467 178.66315726 51.17639786 181.64155735 51.16462898 184.6199646 C51.16005432 186.00634168 51.15721964 187.3927257 51.15620613 188.77910995 C51.15464466 190.66379439 51.14653429 192.54847009 51.13803101 194.43313599 C51.13547491 195.49022326 51.13291882 196.54731052 51.13028526 197.63643074 C51 200 51 200 50 201 C48.43452952 201.09326716 46.86487228 201.11745582 45.29663086 201.11352539 C44.29566879 201.11344986 43.29470673 201.11337433 42.26341248 201.11329651 C41.1748848 201.10813522 40.08635712 201.10297394 38.96484375 201.09765625 C37.85645645 201.0962413 36.74806915 201.09482635 35.60609436 201.09336853 C32.04986931 201.08775033 28.49370617 201.07519475 24.9375 201.0625 C22.53320403 201.05748734 20.12890708 201.05292403 17.72460938 201.04882812 C11.81638496 201.03777499 5.9081969 201.02101917 0 201 C-1.54136903 197.91726194 -1.13692099 194.67669173 -1.12698364 191.29406738 C-1.12854363 190.48930985 -1.13010362 189.68455232 -1.13171089 188.85540819 C-1.13571721 186.14382151 -1.13253265 183.43229028 -1.12939453 180.72070312 C-1.13074873 178.7827908 -1.13252877 176.84487874 -1.13470459 174.90696716 C-1.13927665 169.63231975 -1.13749029 164.35769182 -1.1343255 159.08304405 C-1.13180074 153.57330649 -1.13413977 148.06357064 -1.13571167 142.55383301 C-1.13753302 133.29972025 -1.13512795 124.04561546 -1.13037109 114.79150391 C-1.12492854 104.07944936 -1.12669122 93.36741383 -1.1321975 82.65535975 C-1.1367296 73.47234766 -1.1373787 64.28934133 -1.13475883 55.10632849 C-1.13319659 49.61552461 -1.13300084 44.1247297 -1.13629532 38.63392639 C-1.13917543 33.47284615 -1.13719573 28.31179054 -1.13140106 23.15071297 C-1.13007422 21.25195926 -1.1304663 19.3532035 -1.13266373 17.45445061 C-1.13537819 14.8715829 -1.13199042 12.28879517 -1.12698364 9.70593262 C-1.13032973 8.56694228 -1.13032973 8.56694228 -1.13374341 7.40494204 C-1.11415006 2.22830013 -1.11415006 2.22830013 0 0 Z " fill="#FE5D4E" transform="translate(513,142)"/>
<path d="M0 0 C0.86873985 -0.00260775 1.7374797 -0.00521549 2.63254499 -0.00790226 C3.59779616 -0.00567154 4.56304732 -0.00344082 5.55754852 -0.0011425 C7.08297862 -0.00348249 7.08297862 -0.00348249 8.63922548 -0.00586975 C12.07486415 -0.00988452 15.51045927 -0.00668826 18.94609833 -0.00355339 C21.39779435 -0.00490722 23.84949017 -0.00668705 26.30118561 -0.00886345 C32.28584091 -0.01296386 38.27047887 -0.01234447 44.25513351 -0.00945081 C49.1168496 -0.00719696 53.97856217 -0.00688417 58.84027863 -0.00797462 C59.53091936 -0.00812786 60.2215601 -0.00828109 60.93312934 -0.00843897 C62.33593508 -0.00875868 63.73874081 -0.00908289 65.14154655 -0.00941156 C78.31098427 -0.01226649 91.48041504 -0.00897912 104.64985162 -0.00361119 C115.96198291 0.00085686 127.27410394 0.00008093 138.58623505 -0.00452995 C151.70695715 -0.00987548 164.82767316 -0.0119918 177.94839621 -0.00891769 C179.34618473 -0.00859912 180.74397325 -0.00828475 182.14176178 -0.00797462 C182.82958954 -0.00782035 183.51741729 -0.00766607 184.22608832 -0.00750712 C189.08475057 -0.0066419 193.94340896 -0.00810495 198.80207062 -0.01045418 C205.33546834 -0.01354357 211.8688496 -0.0113597 218.40224648 -0.00555992 C220.80776245 -0.00423159 223.21328005 -0.00462766 225.61879539 -0.00682259 C228.88738343 -0.00953125 232.15590796 -0.00615646 235.42449188 -0.0011425 C236.87236863 -0.00448858 236.87236863 -0.00448858 238.34949541 -0.00790226 C239.65260518 -0.00399064 239.65260518 -0.00399064 240.98204041 0 C241.73752151 0.00016235 242.49300261 0.0003247 243.27137709 0.00049198 C244.9910202 0.12584114 244.9910202 0.12584114 245.9910202 1.12584114 C246.08428736 2.69131162 246.10847602 4.26096887 246.10454559 5.82921028 C246.10447006 6.83017235 246.10439453 7.83113441 246.10431671 8.86242867 C246.09915543 9.95095634 246.09399414 11.03948402 246.08867645 12.16099739 C246.08655403 13.82357834 246.08655403 13.82357834 246.08438873 15.51974678 C246.07877054 19.07597183 246.06621495 22.63213497 246.0535202 26.18834114 C246.04850755 28.59263711 246.04394424 30.99693406 246.03984833 33.40123177 C246.0287952 39.30945618 246.01203937 45.21764424 245.9910202 51.12584114 C242.73832365 52.75218942 239.15640011 52.27904779 235.58159637 52.28355598 C234.71151443 52.2886367 233.8414325 52.29371742 232.94498444 52.2989521 C231.05158438 52.30966816 229.15817156 52.31828348 227.26475334 52.32507133 C224.26811181 52.336841 221.27161565 52.3562892 218.27503204 52.37819099 C209.75357142 52.43986974 201.23212484 52.49385339 192.71050262 52.52720833 C187.50150042 52.54814842 182.2927617 52.58344832 177.08390999 52.62796593 C175.09802921 52.6421335 173.1121018 52.65085007 171.12617302 52.65402031 C168.3467107 52.6589265 165.56794792 52.68207755 162.78862762 52.70933723 C161.96817963 52.7063311 161.14773163 52.70332497 160.30242157 52.70022774 C155.74389711 52.76665427 152.63980834 53.09454353 148.9910202 56.12584114 C146.89789739 59.41009128 146.73514639 62.06219225 146.71927643 65.91507149 C146.70469894 67.68812408 146.70469894 67.68812408 146.68982697 69.49699593 C146.68923782 70.79014717 146.68864868 72.08329842 146.68804169 73.41563606 C146.68037888 74.79390142 146.6718322 76.1721621 146.66246796 77.55041695 C146.6442026 80.51549161 146.63215576 83.48050336 146.62492943 86.44562531 C146.61344582 91.12997867 146.58799269 95.81419243 146.56061554 100.49847603 C146.51898081 107.90260755 146.48655587 115.30674574 146.45814139 122.71093875 C146.40712737 135.98395153 146.34513026 149.25690669 146.27280098 162.52982026 C146.24782695 167.19101115 146.22841936 171.85218337 146.21341884 176.51341665 C146.20324702 179.40552984 146.18910188 182.29761397 146.17394257 185.1897049 C146.16480621 187.18021462 146.1606888 189.17074538 146.15668488 191.16127205 C146.14978638 192.33484764 146.14288788 193.50842323 146.13578033 194.71756172 C146.13192542 195.7438528 146.12807051 196.77014387 146.12409878 197.82753468 C145.9910202 200.12584114 145.9910202 200.12584114 144.9910202 201.12584114 C143.4616739 201.22423328 141.92782455 201.25382653 140.39531708 201.25523567 C138.92874664 201.25996391 138.92874664 201.25996391 137.43254852 201.26478767 C136.36903168 201.26276344 135.30551483 201.26073921 134.2097702 201.25865364 C132.58404083 201.26008873 132.58404083 201.26008873 130.92546844 201.26155281 C128.62879631 201.26223479 126.33212226 201.26037925 124.0354538 201.25621223 C120.50627593 201.25086426 116.97722533 201.25615664 113.44805145 201.26255989 C111.22279075 201.26189911 108.99753013 201.26061796 106.7722702 201.25865364 C105.70875336 201.26067787 104.64523651 201.2627021 103.54949188 201.26478767 C102.57177826 201.26163551 101.59406464 201.25848335 100.58672333 201.25523567 C99.72148041 201.25444008 98.85623749 201.25364449 97.96477509 201.25282478 C95.9910202 201.12584114 95.9910202 201.12584114 94.9910202 200.12584114 C94.88901699 198.35746146 94.85748249 196.58499023 94.8529892 194.81367683 C94.84753586 193.66126503 94.84208252 192.50885323 94.83646393 191.32151985 C94.8354216 190.04571053 94.83437927 188.7699012 94.83330536 187.45543098 C94.82863935 186.10705079 94.82349614 184.75867218 94.81790924 183.41029549 C94.80660797 180.49920867 94.79818343 177.58813222 94.79179001 174.67703056 C94.78112575 170.07111213 94.76088327 165.46526758 94.73867035 160.85939217 C94.67669924 147.75927823 94.62278344 134.65916751 94.58965302 121.55894661 C94.57128878 114.32933948 94.54232622 107.09985502 94.50164831 99.87033808 C94.48060049 96.04433542 94.46512429 92.21848723 94.46284103 88.39242363 C94.46068835 84.78904301 94.44475626 81.18598347 94.41845131 77.58270073 C94.40787015 75.63627376 94.41200319 73.68978404 94.41663361 71.74333382 C94.33703248 63.00897233 94.33703248 63.00897233 90.9910202 55.12584114 C87.50066515 52.10310374 82.59372988 52.8259633 78.19927216 52.82286263 C77.31271942 52.81442329 76.42616669 52.80598396 75.51274872 52.79728889 C72.5849275 52.77151535 69.657207 52.75937383 66.72930145 52.74693489 C64.69716337 52.73076343 62.66503308 52.71358381 60.63291168 52.69543648 C55.28548014 52.64974626 49.93803831 52.61493742 44.59050751 52.5832386 C36.01982154 52.53135678 27.44924956 52.46639807 18.87870598 52.39502335 C15.87784978 52.37211466 12.87700829 52.35589476 9.87610626 52.34030342 C8.04893072 52.32690339 6.22175673 52.31328917 4.39458466 52.29942513 C3.55354691 52.29681175 2.71250916 52.29419838 1.84598541 52.29150581 C-3.89534122 52.23947972 -3.89534122 52.23947972 -5.0089798 51.12584114 C-5.10744946 49.56585066 -5.13696597 48.0014357 -5.13837433 46.43834114 C-5.14152649 45.44060677 -5.14467865 44.44287239 -5.14792633 43.41490364 C-5.1459021 42.32951302 -5.14387787 41.24412239 -5.1417923 40.12584114 C-5.14274902 39.01982552 -5.14370575 37.91380989 -5.14469147 36.77427864 C-5.14537346 34.43052806 -5.14351784 32.08677561 -5.13935089 29.74302864 C-5.13400293 26.14142326 -5.13929526 22.53994261 -5.14569855 18.93834114 C-5.14503777 16.66750753 -5.14375661 14.396674 -5.1417923 12.12584114 C-5.14381653 11.04045052 -5.14584076 9.95505989 -5.14792633 8.83677864 C-5.14477417 7.83904427 -5.14162201 6.84130989 -5.13837433 5.81334114 C-5.13757874 4.93033333 -5.13678314 4.04732552 -5.13596344 3.13755989 C-4.90633138 -0.50035061 -3.20355508 0.00068844 0 0 Z " fill="#FE5E4F" transform="translate(228.00897979736328,141.87415885925293)"/>
<path d="M0 0 C0.99773437 -0.00315216 1.99546875 -0.00630432 3.0234375 -0.009552 C4.65152344 -0.00651566 4.65152344 -0.00651566 6.3125 -0.00341797 C7.41851562 -0.00437469 8.52453125 -0.00533142 9.6640625 -0.00631714 C12.00781308 -0.00699913 14.35156553 -0.00514351 16.6953125 -0.00097656 C20.29691788 0.00437139 23.89839853 -0.00092093 27.5 -0.00732422 C29.77083361 -0.00666344 32.04166714 -0.00538229 34.3125 -0.00341797 C35.94058594 -0.00645432 35.94058594 -0.00645432 37.6015625 -0.009552 C38.59929687 -0.00639984 39.59703125 -0.00324768 40.625 0 C41.50800781 0.00079559 42.39101562 0.00159119 43.30078125 0.00241089 C45.3125 0.12939453 45.3125 0.12939453 46.3125 1.12939453 C46.41466238 2.98277262 46.44604265 4.84007231 46.45053101 6.69625854 C46.45598434 7.90493591 46.46143768 9.11361328 46.46705627 10.35891724 C46.46817618 11.71063227 46.46922668 13.06234736 46.47021484 14.4140625 C46.4748806 15.82804524 46.48002376 17.24202646 46.48561096 18.65600586 C46.49691077 21.70788305 46.50533581 24.75975035 46.51173019 27.81164169 C46.52238605 32.63489194 46.5426241 37.45807143 46.56484985 42.28128052 C46.62685627 55.99901086 46.68080952 69.71673746 46.71386719 83.43457031 C46.73219224 91.00546638 46.76110162 98.57624446 46.8018719 106.14705384 C46.82297826 110.15625161 46.83840425 114.16530046 46.84067917 118.17455673 C46.84282121 121.94535829 46.8586446 125.7158498 46.88506889 129.48655701 C46.89228049 130.87207964 46.89435387 132.25763977 46.89096642 133.64317703 C46.88708622 135.53166078 46.90325078 137.4201543 46.92050171 139.30856323 C46.92381186 140.36640455 46.927122 141.42424587 46.93053246 142.51414299 C47.12947321 145.11619437 47.12947321 145.11619437 48.47641182 146.96953773 C51.07674429 148.6121676 53.01464992 148.50584896 56.08190918 148.50793457 C57.88642799 148.52023857 57.88642799 148.52023857 59.72740173 148.53279114 C61.06240959 148.52683252 62.39741631 148.52061343 63.73242188 148.51416016 C65.13685039 148.51826469 66.54127551 148.52372486 67.94569397 148.53044128 C70.9708543 148.54217468 73.99583215 148.54464773 77.02101135 148.54008484 C81.80247338 148.53328546 86.58369446 148.54912487 91.3651123 148.56848145 C101.51422853 148.60636617 111.6633239 148.61914317 121.8125 148.62939453 C132.76857319 148.64046091 143.72453593 148.65575401 154.68053293 148.7001071 C159.43575806 148.71849605 164.19070874 148.72234419 168.945961 148.71517181 C171.90158269 148.71365282 174.85706636 148.72441554 177.81265068 148.73855019 C179.18528664 148.7425618 180.55794863 148.74141258 181.93057442 148.73477745 C183.80140226 148.72642728 185.67228783 148.73809854 187.54309082 148.75085449 C188.59096016 148.751567 189.6388295 148.75227951 190.71845245 148.75301361 C193.3125 149.12939453 193.3125 149.12939453 195.14969921 150.51982784 C196.71299343 152.68376368 196.68684822 154.09584804 196.68481445 156.75268555 C196.69104324 157.68697891 196.69727203 158.62127228 196.70368958 159.58387756 C196.68987495 161.09334206 196.68987495 161.09334206 196.67578125 162.63330078 C196.67652901 164.18463966 196.67652901 164.18463966 196.67729187 165.76731873 C196.67495098 167.95370403 196.66522159 170.14009202 196.64868164 172.32641602 C196.62506815 175.6822098 196.62812329 179.03721056 196.63476562 182.39306641 C196.62918974 184.51481596 196.62208043 186.63656215 196.61328125 188.75830078 C196.61419266 189.76663467 196.61510406 190.77496857 196.61604309 191.81385803 C196.60651108 192.74499924 196.59697906 193.67614044 196.5871582 194.63549805 C196.58255081 195.45695816 196.57794342 196.27841827 196.57319641 197.12477112 C196.3125 199.12939453 196.3125 199.12939453 194.3125 201.12939453 C191.63237953 201.38666344 191.63237953 201.38666344 188.15444946 201.39682007 C186.18218384 201.40961502 186.18218384 201.40961502 184.17007446 201.42266846 C182.70404041 201.42196933 181.23800645 201.42104622 179.77197266 201.41992188 C178.23451408 201.42590373 176.69705852 201.43270848 175.15960693 201.4402771 C170.97308678 201.45799181 166.78664832 201.46263512 162.60009432 201.46390867 C159.98180445 201.46532919 157.36353541 201.46959716 154.7452507 201.47490311 C145.60212637 201.4934303 136.45906044 201.50157146 127.31591797 201.5 C118.81021897 201.49880192 110.3047751 201.51983151 101.79914057 201.55148733 C94.48855771 201.57771973 87.1780577 201.58836419 79.86742818 201.58708918 C75.50522308 201.58658104 71.14324397 201.59217997 66.78108597 201.61344528 C62.66879438 201.63294203 58.55694138 201.63287485 54.44463348 201.61841202 C52.94353717 201.61633602 51.44241262 201.62095189 49.94136429 201.63313293 C33.75977546 201.75582671 20.23735737 197.23709171 8.19140625 186.16455078 C-0.79030105 176.43592396 -5.81014226 163.79109509 -5.81448364 150.61248779 C-5.81730347 149.2944516 -5.82012329 147.97641541 -5.82302856 146.61843872 C-5.82108445 145.16473375 -5.8190363 143.71102891 -5.81689453 142.25732422 C-5.81825002 140.72128254 -5.82003079 139.18524118 -5.82220459 137.64920044 C-5.82675978 133.48426483 -5.82499763 129.31935402 -5.8218255 125.15441799 C-5.81929386 120.79868439 -5.82164152 116.44295292 -5.82321167 112.08721924 C-5.82503023 104.77705504 -5.82263444 97.46690095 -5.81787109 90.15673828 C-5.81242094 81.69459499 -5.81419785 73.23247577 -5.8196975 64.77033305 C-5.82422784 57.50997738 -5.82487981 50.24962898 -5.82225883 42.98927236 C-5.82069667 38.65046497 -5.82050081 34.31166891 -5.82379532 29.97286224 C-5.82667316 25.89845012 -5.82469998 21.82406922 -5.81890106 17.74966049 C-5.81757334 16.25039853 -5.81796778 14.75113396 -5.82016373 13.25187302 C-5.82287452 11.2140385 -5.81888104 9.17619827 -5.81448364 7.1383667 C-5.81410662 5.99538494 -5.81372959 4.85240318 -5.81334114 3.67478561 C-5.59834521 -0.67394099 -3.89322263 0.00350781 0 0 Z " fill="#FE5E4F" transform="translate(68.6875,141.87060546875)"/>
<path d="M0 0 C12.09113635 -0.0462659 24.18225177 -0.08183989 36.27345848 -0.10362434 C41.8874155 -0.11407784 47.50131212 -0.12826553 53.11523438 -0.15087891 C58.52926861 -0.17255154 63.94324462 -0.18455681 69.35731888 -0.18975449 C71.4266616 -0.1934603 73.49600101 -0.20069644 75.56531906 -0.21146011 C78.45556365 -0.22590091 81.3455652 -0.22798106 84.23583984 -0.22705078 C85.09826797 -0.23424133 85.96069611 -0.24143188 86.84925842 -0.24884033 C92.77189568 -0.22810432 92.77189568 -0.22810432 95 2 C95.19754968 4.60367224 95.26927222 7.10107052 95.25396729 9.70593262 C95.25708727 10.51069015 95.26020725 11.31544768 95.26342177 12.14459181 C95.27143458 14.85623345 95.26506543 17.56765334 95.25878906 20.27929688 C95.26149747 22.2172102 95.26505755 24.1551225 95.26940918 26.09303284 C95.27855334 31.36769938 95.2749806 36.64228798 95.26865101 41.91695595 C95.26360148 47.42669516 95.26827954 52.93642753 95.27142334 58.44616699 C95.27506605 67.70028893 95.27025591 76.95437899 95.26074219 86.20849609 C95.24985706 96.92057014 95.25338242 107.63256806 95.264395 118.34464025 C95.27345921 127.52765732 95.2747574 136.71065142 95.26951766 145.89367151 C95.26639318 151.38448491 95.26600168 156.87526248 95.27259064 162.36607361 C95.2783509 167.52718115 95.2743915 172.68819018 95.26280212 177.84928703 C95.26014845 179.74803949 95.26093261 181.64680017 95.26532745 183.54554939 C95.27075656 186.12850222 95.26398111 188.71113519 95.25396729 191.29406738 C95.25842873 192.05339427 95.26289017 192.81272117 95.26748681 193.59505796 C95.22830013 198.77169987 95.22830013 198.77169987 93 201 C90.9059906 201.24723816 90.9059906 201.24723816 88.29077148 201.24291992 C87.31313339 201.24599655 86.3354953 201.24907318 85.32823181 201.25224304 C84.26987625 201.24505753 83.21152069 201.23787201 82.12109375 201.23046875 C81.03868912 201.23001053 79.95628448 201.22955231 78.84107971 201.2290802 C76.55037339 201.22605559 74.25966916 201.21816309 71.96899414 201.20581055 C68.44865697 201.18755785 64.92858266 201.18530078 61.40820312 201.18554688 C59.18749771 201.18063175 56.96679409 201.17480346 54.74609375 201.16796875 C53.68571396 201.16685593 52.62533417 201.1657431 51.53282166 201.16459656 C50.55833572 201.15821671 49.58384979 201.15183685 48.57983398 201.14526367 C47.71760727 201.14145187 46.85538055 201.13764008 45.96702576 201.13371277 C44 201 44 201 43 200 C42.89786416 198.16153628 42.86645817 196.31912212 42.86196899 194.47782898 C42.85651566 193.27901093 42.85106232 192.08019287 42.84544373 190.845047 C42.84432382 189.50436407 42.84327331 188.16368108 42.84228516 186.82299805 C42.83761934 185.42048991 42.83247617 184.01798329 42.82688904 182.61547852 C42.81558884 179.58815845 42.80716394 176.56084835 42.80076981 173.53351402 C42.79011199 168.74779441 42.76987289 163.96214605 42.74765015 159.1764679 C42.68565203 145.565351 42.63170782 131.9542377 42.59863281 118.34301758 C42.58029845 110.83107515 42.55137634 103.31925143 42.5106281 95.80739623 C42.4895357 91.83002451 42.47409773 87.85280254 42.47182083 83.87537193 C42.46967626 80.1332937 42.45382685 76.39152712 42.42743111 72.64954376 C42.42022891 71.27572917 42.41814161 69.90187685 42.42153358 68.52804756 C42.42542355 66.65305055 42.40922588 64.77804385 42.39199829 62.90312195 C42.38868814 61.85357677 42.385378 60.80403158 42.38196754 59.722682 C41.94253032 56.59035353 41.19943898 55.24469727 39 53 C35.91222828 51.71991738 35.91222828 51.71991738 33 51 C33 50.67 33 50.34 33 50 C36.94930839 49.6128129 39.2757487 49.55574898 42.70280457 51.65788269 C46.85735144 56.18725933 45.64725785 63.0432513 45.56762695 68.78637695 C45.56621591 70.20581512 45.56700957 71.62525694 45.56983948 73.04469299 C45.57127288 76.89170245 45.54189647 80.7379309 45.50696969 84.584759 C45.47569296 88.60726212 45.47277443 92.62978357 45.46684265 96.65238953 C45.45130801 104.26682849 45.41028491 111.8809081 45.3600952 119.49518889 C45.30418975 128.16498023 45.27671225 136.83478882 45.25161803 145.50471556 C45.19936842 163.3367221 45.10768173 181.1682361 45 199 C60.51 199 76.02 199 92 199 C92 133.99 92 68.98 92 2 C61.64 2 31.28 2 0 2 C0 1.34 0 0.68 0 0 Z " fill="#FB574D" transform="translate(719,142)"/>
<path d="M0 0 C0.90795822 -0.00058411 1.81591644 -0.00116821 2.75138855 -0.00177002 C5.73846289 0.00100626 8.72452678 0.03207687 11.71142578 0.06347656 C13.7879278 0.07094057 15.86443689 0.07663275 17.94094849 0.08062744 C23.39582908 0.09587112 28.85028099 0.13514235 34.30499268 0.17944336 C39.87530723 0.22042318 45.44569131 0.23864427 51.01611328 0.25878906 C61.93817622 0.30163757 72.85992155 0.36987382 83.78173828 0.45410156 C81.18952106 3.04631878 79.40911359 2.70104042 75.87692261 2.733078 C75.05040192 2.73052505 74.22388123 2.72797211 73.37231445 2.7253418 C72.50223251 2.73056854 71.63215057 2.73579529 70.73570251 2.74118042 C68.84231055 2.75143822 66.94889026 2.75720391 65.05547142 2.75906181 C62.05876285 2.76271475 59.06238845 2.77941254 56.06575012 2.79981995 C47.54430351 2.85533072 39.02280684 2.88590798 30.5012207 2.91040039 C25.29223731 2.92627647 20.08348947 2.9564996 14.87462807 2.99516487 C12.88874119 3.00681822 10.90281216 3.01274525 8.9168911 3.01284599 C6.1374594 3.01303807 3.35867662 3.03130723 0.5793457 3.0534668 C-0.24110229 3.04888962 -1.06155029 3.04431244 -1.90686035 3.03959656 C-6.46782117 3.09740012 -9.56773685 3.41961636 -13.21826172 6.45410156 C-15.31133897 9.73839681 -15.47413541 12.3904224 -15.49000549 16.24333191 C-15.49972382 17.42536697 -15.50944214 18.60740204 -15.51945496 19.82525635 C-15.5200441 21.11840759 -15.52063324 22.41155884 -15.52124023 23.74389648 C-15.52890304 25.12216184 -15.53744972 26.50042252 -15.54681396 27.87867737 C-15.56507932 30.84375203 -15.57712616 33.80876379 -15.58435249 36.77388573 C-15.5958361 41.45823909 -15.62128923 46.14245286 -15.64866638 50.82673645 C-15.69030111 58.23086797 -15.72272605 65.63500616 -15.75114053 73.03919917 C-15.80215455 86.31221196 -15.86415166 99.58516711 -15.93648094 112.85808069 C-15.96145497 117.51927157 -15.98086256 122.18044379 -15.99586308 126.84167707 C-16.0060349 129.73379026 -16.02018005 132.6258744 -16.03533936 135.51796532 C-16.04447571 137.50847505 -16.04859313 139.4990058 -16.05259705 141.48953247 C-16.06294479 143.24989586 -16.06294479 143.24989586 -16.07350159 145.04582214 C-16.07928396 146.58525876 -16.07928396 146.58525876 -16.08518314 148.1557951 C-16.21826172 150.45410156 -16.21826172 150.45410156 -17.21826172 151.45410156 C-18.74760802 151.5524937 -20.28145737 151.58208695 -21.81396484 151.58349609 C-23.28053528 151.58822433 -23.28053528 151.58822433 -24.7767334 151.5930481 C-25.84025024 151.59102386 -26.90376709 151.58899963 -27.99951172 151.58691406 C-29.62524109 151.58834915 -29.62524109 151.58834915 -31.28381348 151.58981323 C-33.58048561 151.59049522 -35.87715967 151.58863968 -38.17382812 151.58447266 C-41.703006 151.57912468 -45.23205659 151.58441707 -48.76123047 151.59082031 C-50.98649117 151.59015953 -53.21175179 151.58887838 -55.43701172 151.58691406 C-56.50052856 151.58893829 -57.56404541 151.59096252 -58.65979004 151.5930481 C-59.63750366 151.58989594 -60.61521729 151.58674377 -61.62255859 151.58349609 C-62.48780151 151.5827005 -63.35304443 151.58190491 -64.24450684 151.58108521 C-66.21826172 151.45410156 -66.21826172 151.45410156 -67.21826172 150.45410156 C-67.31465356 148.65716118 -67.34013597 146.85639264 -67.33851624 145.05686951 C-67.3398909 143.88592743 -67.34126556 142.71498535 -67.34268188 141.50856018 C-67.33908661 140.2124028 -67.33549133 138.91624542 -67.33178711 137.58081055 C-67.33150524 136.21122235 -67.33166297 134.84163401 -67.33222961 133.4720459 C-67.33251759 129.74287208 -67.3266208 126.01373016 -67.31965566 122.28456378 C-67.31342219 118.39145744 -67.31281833 114.49835043 -67.31163025 110.60523987 C-67.30851691 103.2281201 -67.30030349 95.85101507 -67.29028076 88.47390181 C-67.27911969 80.07742613 -67.27360919 71.68094977 -67.26858532 63.28446853 C-67.25812088 46.007671 -67.2405214 28.73088784 -67.21826172 11.45410156 C-66.55826172 11.45410156 -65.89826172 11.45410156 -65.21826172 11.45410156 C-65.21826172 56.99410156 -65.21826172 102.53410156 -65.21826172 149.45410156 C-49.70826172 149.45410156 -34.19826172 149.45410156 -18.21826172 149.45410156 C-18.23397217 145.23927002 -18.24968262 141.02443848 -18.26586914 136.68188477 C-18.31552968 122.77193362 -18.34884931 108.86197903 -18.37369823 94.95196247 C-18.38916786 86.51651301 -18.41025917 78.08114752 -18.44458008 69.64575195 C-18.47447955 62.29355332 -18.49383603 54.9414155 -18.5005272 47.58915776 C-18.50443855 43.69608894 -18.51363263 39.80319411 -18.53545189 35.91018105 C-18.55582576 32.24533662 -18.56209375 28.58073774 -18.55758476 24.91584206 C-18.55880261 22.93079115 -18.57494006 20.94576693 -18.59152222 18.96078491 C-18.58739822 17.77593002 -18.58327423 16.59107513 -18.57902527 15.37031555 C-18.58179065 14.34251637 -18.58455603 13.3147172 -18.5874052 12.25577259 C-17.98525872 7.6856896 -16.0220238 5.15714094 -12.60690308 2.16998291 C-8.21612736 -0.05334183 -4.84752522 -0.08220389 0 0 Z " fill="#FE6F60" transform="translate(390.21826171875,191.5458984375)"/>
<path d="M0 0 C0.99 0.495 0.99 0.495 2 1 C2 17.17 2 33.34 2 50 C-28.03 50 -58.06 50 -89 50 C-89 49.67 -89 49.34 -89 49 C-59.96 49 -30.92 49 -1 49 C-1 33.82 -1 18.64 -1 3 C-82.18 3 -163.36 3 -247 3 C-247 2.67 -247 2.34 -247 2 C-165.49 2 -83.98 2 0 2 C0 1.34 0 0.68 0 0 Z " fill="#FA6759" transform="translate(472,142)"/>
<path d="M0 0 C0.86825912 0.00222061 1.73651825 0.00444122 2.63108826 0.00672913 C3.61202957 0.00680466 4.59297089 0.00688019 5.6036377 0.00695801 C6.6702916 0.01211929 7.7369455 0.01728058 8.83592224 0.02259827 C9.92211349 0.02401321 11.00830475 0.02542816 12.12741089 0.02688599 C15.61230674 0.03250403 19.09713941 0.04505959 22.58201599 0.05775452 C24.93813486 0.06276719 27.29425473 0.0673305 29.65037537 0.07142639 C35.44011063 0.08247933 41.2298088 0.09923501 47.01951599 0.12025452 C47.01951599 0.78025452 47.01951599 1.44025452 47.01951599 2.12025452 C31.17951599 2.12025452 15.33951599 2.12025452 -0.98048401 2.12025452 C-0.87261144 22.18212472 -0.76065279 42.24395833 -0.64114475 62.30576229 C-0.58579158 71.62013411 -0.53230621 80.93450976 -0.48316956 90.24891663 C-0.44035331 98.36433217 -0.39408188 106.47971927 -0.34360546 114.59509093 C-0.31698383 118.89483569 -0.29213033 123.19457475 -0.27140999 127.49435234 C-0.25187566 131.53671059 -0.2277417 135.57901459 -0.19999313 139.62132454 C-0.19060566 141.10928491 -0.18293653 142.5972572 -0.1770649 144.0852356 C-0.16883252 146.10803555 -0.1539669 148.13080534 -0.13870239 150.15356445 C-0.13224984 151.28829162 -0.12579729 152.42301878 -0.11914921 153.59213161 C-0.26596533 156.05721306 -0.26596533 156.05721306 1.01951599 157.12025452 C1.5564251 160.4770644 1.98578984 163.8427078 2.42185974 167.21400452 C2.6190863 168.17306702 2.81631287 169.13212952 3.01951599 170.12025452 C3.67951599 170.45025452 4.33951599 170.78025452 5.01951599 171.12025452 C5.64451599 173.68275452 5.64451599 173.68275452 6.01951599 176.12025452 C5.02951599 175.79025452 4.03951599 175.46025452 3.01951599 175.12025452 C1.66795349 172.35462952 1.66795349 172.35462952 0.39451599 168.87025452 C-0.24356995 167.16095764 -0.24356995 167.16095764 -0.89454651 165.41712952 C-2.56024458 160.36011812 -3.10571324 155.92898846 -3.10746765 150.60334778 C-3.11028748 149.28531158 -3.1131073 147.96727539 -3.11601257 146.60929871 C-3.11406846 145.15559373 -3.11202031 143.7018889 -3.10987854 142.2481842 C-3.11123403 140.71214252 -3.1130148 139.17610117 -3.1151886 137.64006042 C-3.11974379 133.47512482 -3.11798164 129.31021401 -3.11480951 125.14527798 C-3.11227787 120.78954438 -3.11462553 116.4338129 -3.11619568 112.07807922 C-3.11801424 104.76791502 -3.11561845 97.45776093 -3.1108551 90.14759827 C-3.10540495 81.68545498 -3.10718186 73.22333575 -3.11268151 64.76119304 C-3.11721185 57.50083737 -3.11786382 50.24048896 -3.11524284 42.98013234 C-3.11368067 38.64132495 -3.11348482 34.3025289 -3.11677933 29.96372223 C-3.11965717 25.88931011 -3.11768399 21.81492921 -3.11188507 17.74052048 C-3.11055735 16.24125851 -3.11095179 14.74199394 -3.11314774 13.242733 C-3.11585853 11.20489849 -3.11186505 9.16705826 -3.10746765 7.12922668 C-3.10709063 5.98624493 -3.1067136 4.84326317 -3.10632515 3.6656456 C-2.93390728 0.17814615 -2.93390728 0.17814615 0 0 Z " fill="#FE665A" transform="translate(65.98048400878906,141.87974548339844)"/>
<path d="M0 0 C5.16871787 0.23290583 8.04545335 0.83396596 11.81640625 4.7265625 C11.48640625 5.3865625 11.15640625 6.0465625 10.81640625 6.7265625 C10.11515625 6.2315625 9.41390625 5.7365625 8.69140625 5.2265625 C5.37715419 3.49738751 3.50363516 3.2456196 -0.18359375 3.7265625 C-1.95118319 4.83221903 -1.95118319 4.83221903 -3.18359375 6.7265625 C-3.64139531 9.42997357 -3.64139531 9.42997357 -3.57559204 12.5473938 C-3.58668503 13.76171082 -3.59777802 14.97602783 -3.60920715 16.22714233 C-3.60643823 17.57476864 -3.60339242 18.92239441 -3.60009766 20.27001953 C-3.60747584 21.68754802 -3.61618027 23.10507013 -3.62611389 24.52258301 C-3.64946649 28.37362237 -3.65458791 32.22450064 -3.65677309 36.07560205 C-3.662426 40.10041386 -3.68569288 44.12512005 -3.70736694 48.14987183 C-3.74591576 55.77362416 -3.77011947 63.39734635 -3.78849161 71.02117145 C-3.8218876 84.68542675 -3.87951775 98.34959196 -3.94248331 112.01373947 C-3.96402863 116.81292334 -3.97926748 121.61207578 -3.9893229 126.41129708 C-3.99631908 129.38971976 -4.00719589 132.36811985 -4.01896477 135.3465271 C-4.02353943 136.73290418 -4.02637411 138.1192882 -4.02738762 139.50567245 C-4.02894909 141.39035689 -4.03705946 143.27503259 -4.04556274 145.15969849 C-4.04811884 146.21678576 -4.05067493 147.27387302 -4.05330849 148.36299324 C-4.18359375 150.7265625 -4.18359375 150.7265625 -5.18359375 151.7265625 C-6.74906423 151.81982966 -8.31872147 151.84401832 -9.88696289 151.84008789 C-10.88792496 151.84001236 -11.88888702 151.83993683 -12.92018127 151.83985901 C-14.00870895 151.83469772 -15.09723663 151.82953644 -16.21875 151.82421875 C-17.3271373 151.8228038 -18.4355246 151.82138885 -19.57749939 151.81993103 C-23.13372444 151.81431283 -26.68988758 151.80175725 -30.24609375 151.7890625 C-32.65038972 151.78404984 -35.05468667 151.77948653 -37.45898438 151.77539062 C-43.36720879 151.76433749 -49.27539685 151.74758167 -55.18359375 151.7265625 C-55.51359375 150.7365625 -55.84359375 149.7465625 -56.18359375 148.7265625 C-31.43359375 149.2215625 -31.43359375 149.2215625 -6.18359375 149.7265625 C-6.21501465 143.27585205 -6.21501465 143.27585205 -6.24707031 136.69482422 C-6.31330333 122.4975166 -6.35771817 108.30020295 -6.39084244 94.1027813 C-6.41146287 85.49357094 -6.43957346 76.884507 -6.48535156 68.27539062 C-6.52523532 60.77119477 -6.55103034 53.26710496 -6.55994773 45.76280606 C-6.56515991 41.78972376 -6.57739932 37.81694483 -6.60651398 33.84395981 C-6.6337076 30.10273212 -6.64203092 26.36193214 -6.63602448 22.62061501 C-6.63764589 20.5963711 -6.65914802 18.57217355 -6.68127441 16.54804993 C-6.61615769 2.20144066 -6.61615769 2.20144066 0 0 Z " fill="#FF7064" transform="translate(568.18359375,191.2734375)"/>
<path d="M0 0 C0.33 0 0.66 0 1 0 C1 64.68 1 129.36 1 196 C0.01 195.67 -0.98 195.34 -2 195 C-2 132.3 -2 69.6 -2 5 C-1.67 5 -1.34 5 -1 5 C-0.67 3.35 -0.34 1.7 0 0 Z " fill="#F93E36" transform="translate(514,145)"/>
<path d="M0 0 C3.94930839 -0.3871871 6.2757487 -0.44425102 9.70280457 1.65788269 C13.85735144 6.18725933 12.64725785 13.0432513 12.56762695 18.78637695 C12.56621591 20.20581512 12.56700957 21.62525694 12.56983948 23.04469299 C12.57127288 26.89170245 12.54189647 30.7379309 12.50696969 34.584759 C12.47569296 38.60726212 12.47277443 42.62978357 12.46684265 46.65238953 C12.45130801 54.26682849 12.41028491 61.8809081 12.3600952 69.49518889 C12.30418975 78.16498023 12.27671225 86.83478882 12.25161803 95.50471556 C12.19936842 113.3367221 12.10768173 131.1682361 12 149 C28.17 148.67 44.34 148.34 61 148 C60.67 148.99 60.34 149.98 60 151 C53.03996553 151.02526838 46.0799428 151.04283222 39.11987305 151.05493164 C36.75007688 151.05997341 34.38028385 151.06680665 32.01049805 151.07543945 C28.61245961 151.0875119 25.21446215 151.09322971 21.81640625 151.09765625 C20.74975235 151.10281754 19.68309845 151.10797882 18.5841217 151.11329651 C17.60318039 151.11337204 16.62223907 151.11344757 15.61157227 151.11352539 C14.30918358 151.11685631 14.30918358 151.11685631 12.98048401 151.12025452 C11 151 11 151 10 150 C9.89786416 148.16153628 9.86645817 146.31912212 9.86196899 144.47782898 C9.85651566 143.27901093 9.85106232 142.08019287 9.84544373 140.845047 C9.84432382 139.50436407 9.84327331 138.16368108 9.84228516 136.82299805 C9.83761934 135.42048991 9.83247617 134.01798329 9.82688904 132.61547852 C9.81558884 129.58815845 9.80716394 126.56084835 9.80076981 123.53351402 C9.79011199 118.74779441 9.76987289 113.96214605 9.74765015 109.1764679 C9.68565203 95.565351 9.63170782 81.9542377 9.59863281 68.34301758 C9.58029845 60.83107515 9.55137634 53.31925143 9.5106281 45.80739623 C9.4895357 41.83002451 9.47409773 37.85280254 9.47182083 33.87537193 C9.46967626 30.1332937 9.45382685 26.39152712 9.42743111 22.64954376 C9.42022891 21.27572917 9.41814161 19.90187685 9.42153358 18.52804756 C9.42542355 16.65305055 9.40922588 14.77804385 9.39199829 12.90312195 C9.38868814 11.85357677 9.385378 10.80403158 9.38196754 9.722682 C8.94253032 6.59035353 8.19943898 5.24469727 6 3 C2.91222828 1.71991738 2.91222828 1.71991738 0 1 C0 0.67 0 0.34 0 0 Z " fill="#FF7164" transform="translate(752,192)"/>
<path d="M0 0 C0.7045441 0.3242565 1.40908819 0.64851299 2.13498211 0.98259544 C5.23381854 2.08303196 7.56063481 2.26056761 10.84028625 2.2784729 C12.59232613 2.29521812 12.59232613 2.29521812 14.37976074 2.31230164 C16.28839905 2.31554192 16.28839905 2.31554192 18.2355957 2.31884766 C19.59592787 2.3281509 20.95625434 2.33832017 22.3165741 2.34928894 C26.00209884 2.37655842 29.68758542 2.39172925 33.37318444 2.40471697 C37.22760911 2.42036089 41.081956 2.44714709 44.93632507 2.4727478 C52.23181854 2.51951327 59.52732668 2.55626817 66.82289332 2.58942068 C75.13003351 2.62765784 83.43709555 2.67706383 91.74416983 2.72740483 C108.82939 2.83069148 125.91465542 2.91996249 143 3 C138.83770464 5.1529114 135.59875197 6.12505359 130.90289307 6.12698364 C129.84870178 6.12980347 128.7945105 6.13262329 127.70837402 6.13552856 C125.97375916 6.13249222 125.97375916 6.13249222 124.20410156 6.12939453 C122.98595764 6.13114685 121.76781372 6.13289917 120.51275635 6.13470459 C117.16957367 6.13835607 113.82645275 6.1374934 110.48327351 6.1343255 C106.98182912 6.13179393 103.48038737 6.13414188 99.97894287 6.13571167 C94.09435554 6.13753199 88.20978074 6.13513166 82.32519531 6.13037109 C75.53210448 6.12493884 68.7390437 6.12668413 61.94595361 6.1321975 C56.10888673 6.13674461 50.27182888 6.13737105 44.43476081 6.13475883 C40.95086917 6.13320355 37.46699162 6.13298153 33.98310089 6.13629532 C30.09321437 6.13973653 26.20336111 6.13495818 22.31347656 6.12939453 C21.16516357 6.13141876 20.01685059 6.13344299 18.83374023 6.13552856 C4.47929137 6.09753876 4.47929137 6.09753876 1.0625 3.5625 C0 2 0 2 0 0 Z " fill="#FE695F" transform="translate(114,288)"/>
<path d="M0 0 C0.90737411 -0.00014603 1.81474823 -0.00029205 2.74961853 -0.0004425 C5.75807053 0.00025588 8.76646112 0.00804485 11.77490234 0.01586914 C13.85712653 0.01773358 15.93935115 0.01915736 18.02157593 0.02015686 C23.50920823 0.02397998 28.99681417 0.03380853 34.48443604 0.04486084 C40.08125451 0.05507937 45.67807723 0.05965543 51.27490234 0.06469727 C62.26189311 0.07543096 73.24886429 0.09250494 84.23583984 0.11352539 C81.64362263 2.70574261 79.86321515 2.36046425 76.33102417 2.39250183 C75.50450348 2.38994888 74.67798279 2.38739594 73.82641602 2.38476562 C72.95633408 2.38999237 72.08625214 2.39521912 71.18980408 2.40060425 C69.29641212 2.41086205 67.40299182 2.41662774 65.50957298 2.41848564 C62.51286442 2.42213858 59.51649001 2.43883637 56.51985168 2.45924377 C47.99840508 2.51475455 39.47690841 2.54533181 30.95532227 2.56982422 C25.74633887 2.5857003 20.53759103 2.61592342 15.32872963 2.6545887 C13.34284275 2.66624205 11.35691373 2.67216908 9.37099266 2.67226982 C6.59156096 2.6724619 3.81277819 2.69073106 1.03344727 2.71289062 C0.21299927 2.70831345 -0.60744873 2.70373627 -1.45275879 2.69902039 C-6.03979115 2.75715437 -9.03172414 3.15341029 -12.76416016 6.11352539 C-14.09209622 8.18053194 -14.09209622 8.18053194 -14.76416016 10.11352539 C-15.42416016 10.11352539 -16.08416016 10.11352539 -16.76416016 10.11352539 C-16.46595183 6.53502547 -16.02170657 5.35126055 -13.32666016 2.86352539 C-8.83012023 -0.20728236 -5.31331493 -0.02215006 0 0 Z " fill="#FF8071" transform="translate(389.76416015625,191.886474609375)"/>
<path d="M0 0 C12.03952622 0.0380341 24.07874093 0.09736279 36.11802197 0.18390274 C41.70833195 0.22341696 47.29848349 0.25558618 52.88891602 0.27099609 C58.28371614 0.28613655 63.67808075 0.32053598 69.07268715 0.36830902 C71.13112923 0.38314972 73.18963348 0.39104255 75.24812889 0.39188385 C78.13097985 0.39424714 81.012621 0.42127558 83.89526367 0.45410156 C85.17272713 0.44655602 85.17272713 0.44655602 86.47599792 0.43885803 C90.46740406 0.50920565 92.53129762 0.7121233 96.00654602 2.84661865 C98 5 98 5 99 8 C95 6 95 6 93.40985107 4.94961548 C89.75046469 3.50761353 86.07113546 3.69116844 82.19238281 3.68115234 C81.30422379 3.67110672 80.41606476 3.6610611 79.50099182 3.65071106 C76.56837607 3.61984608 73.63585175 3.60283465 70.703125 3.5859375 C68.66859143 3.56722853 66.63406563 3.54765532 64.59954834 3.5272522 C59.24681177 3.47589645 53.89405003 3.43628908 48.54119873 3.39910889 C43.07818356 3.35909088 37.61527339 3.30798847 32.15234375 3.2578125 C21.43496956 3.16101241 10.71753612 3.07662062 0 3 C0 2.01 0 1.02 0 0 Z " fill="#FF8170" transform="translate(224,191)"/>
<path d="M0 0 C12.09111575 -0.06939873 24.18218441 -0.12275965 36.27345848 -0.15543652 C41.88745515 -0.17111687 47.50131593 -0.19239833 53.11523438 -0.22631836 C58.5292762 -0.25882735 63.94318702 -0.27683514 69.35731888 -0.28463173 C71.42667327 -0.29019048 73.49602019 -0.30104481 75.56531906 -0.31719017 C78.45565238 -0.33885203 81.3454389 -0.34197166 84.23583984 -0.34057617 C85.09826797 -0.351362 85.96069611 -0.36214783 86.84925842 -0.3732605 C89.22885132 -0.36076355 89.22885132 -0.36076355 93 0 C93.99 1.485 93.99 1.485 95 3 C63.65 2.67 32.3 2.34 0 2 C0 1.34 0 0.68 0 0 Z " fill="#FF8375" transform="translate(719,142)"/>
<path d="M0 0 C2 1 2 1 3.125 3.375 C4 6 4 6 4 9 C4.66 9 5.32 9 6 9 C6.27263672 9.93972656 6.27263672 9.93972656 6.55078125 10.8984375 C6.80214844 11.71570313 7.05351563 12.53296875 7.3125 13.375 C7.55613281 14.18710937 7.79976562 14.99921875 8.05078125 15.8359375 C8.91368185 18.33184629 8.91368185 18.33184629 12 20 C14.2120428 20.31596328 14.2120428 20.31596328 16.68334961 20.29052734 C17.63120834 20.30328705 18.57906708 20.31604675 19.5556488 20.32919312 C20.57755814 20.33141876 21.59946747 20.33364441 22.65234375 20.3359375 C23.70402237 20.3425943 24.75570099 20.3492511 25.83924866 20.35610962 C28.06428273 20.36623846 30.28934719 20.37092657 32.5144043 20.37060547 C35.92091835 20.37497871 39.32613713 20.41129727 42.73242188 20.44921875 C44.89322473 20.45508677 47.05403375 20.45905626 49.21484375 20.4609375 C50.23472885 20.47530853 51.25461395 20.48967957 52.30540466 20.50448608 C57.82162404 20.56157964 57.82162404 20.56157964 62.5949707 18.11865234 C64.07837273 15.88182127 65.22788404 13.73228162 66.25 11.25 C66.58515625 10.45078125 66.9203125 9.6515625 67.265625 8.828125 C67.62914062 7.92320312 67.62914062 7.92320312 68 7 C69.01299606 9.65602626 69.07672553 10.78395707 68.109375 13.5078125 C67.43648437 14.80332031 67.43648437 14.80332031 66.75 16.125 C66.09257813 17.42824219 66.09257813 17.42824219 65.421875 18.7578125 C64 21 64 21 61 23 C58.77468872 23.26742554 58.77468872 23.26742554 56.14892578 23.29052734 C55.16425323 23.30328705 54.17958069 23.31604675 53.16506958 23.32919312 C51.57128983 23.33253159 51.57128983 23.33253159 49.9453125 23.3359375 C48.85161346 23.3425943 47.75791443 23.3492511 46.631073 23.35610962 C44.31607751 23.36624039 42.00105279 23.37092651 39.68603516 23.37060547 C36.14566836 23.37497449 32.60655206 23.41127982 29.06640625 23.44921875 C26.8177126 23.45508761 24.56901302 23.45905654 22.3203125 23.4609375 C21.26184113 23.47530853 20.20336975 23.48967957 19.11282349 23.50448608 C11.78566185 23.45898964 11.78566185 23.45898964 7.9050293 21.19189453 C5.35718285 18.26038545 4.0113244 15.09772859 2.6875 11.5 C2.42388672 10.83613281 2.16027344 10.17226563 1.88867188 9.48828125 C0.57952035 6.08108688 0 3.69829277 0 0 Z " fill="#FF7E6C" transform="translate(627,320)"/>
<path d="M0 0 C0.66 0.33 1.32 0.66 2 1 C2 26.08 2 51.16 2 77 C1.67 77 1.34 77 1 77 C0.67 52.58 0.34 28.16 0 3 C-15.84 3 -31.68 3 -48 3 C-48 2.67 -48 2.34 -48 2 C-32.16 2 -16.32 2 0 2 C0 1.34 0 0.68 0 0 Z " fill="#FF6060" transform="translate(113,142)"/>
<path d="M0 0 C1.58203125 2.42578125 1.58203125 2.42578125 2.8125 5.3125 C3.23144531 6.25738281 3.65039062 7.20226562 4.08203125 8.17578125 C4.99312807 10.97885784 5.18629959 13.0777579 5 16 C1.49221789 11.79066147 -2 6.5744558 -2 1 C-29.72 0.67 -57.44 0.34 -86 0 C-86 -0.33 -86 -0.66 -86 -1 C-75.52543559 -1.17709588 -65.05075949 -1.34304249 -54.57579517 -1.49477577 C-49.71180026 -1.56558232 -44.84792724 -1.64022136 -39.98413086 -1.72363281 C-35.28990109 -1.80399505 -30.59561853 -1.87427198 -25.90112877 -1.93757248 C-24.11053598 -1.96348663 -22.31999188 -1.9930283 -20.52952003 -2.02626419 C-18.02077056 -2.07221223 -15.51215748 -2.10523404 -13.00317383 -2.13525391 C-12.26374039 -2.1517952 -11.52430695 -2.16833649 -10.76246643 -2.18537903 C-6.73203933 -2.21854435 -3.56880063 -1.94393885 0 0 Z " fill="#FA685B" transform="translate(612,145)"/>
<path d="M0 0 C1.39075996 0.01353516 1.39075996 0.01353516 2.80961609 0.02734375 C5.87295832 0.06310113 8.93437722 0.13454629 11.99707031 0.20629883 C14.12124513 0.23806291 16.24545432 0.26760014 18.36968994 0.29499817 C23.95974982 0.37308956 29.54883026 0.4814525 35.13824463 0.59606934 C40.84220565 0.70769522 46.54657406 0.79076589 52.25097656 0.8762207 C63.44296771 1.04810193 74.63413191 1.25195729 85.82519531 1.47583008 C85.82519531 1.80583008 85.82519531 2.13583008 85.82519531 2.47583008 C84.6564386 2.4772551 83.48768188 2.47868011 82.2835083 2.48014832 C71.27688665 2.49680726 60.27063524 2.53954716 49.26420975 2.60792065 C43.60544774 2.64223279 37.94695691 2.66730722 32.28808594 2.67138672 C26.82839391 2.67566056 21.36931408 2.70404762 15.90981293 2.74926186 C13.8254223 2.7622661 11.74095851 2.76653424 9.65653229 2.76198387 C6.73974749 2.75709874 3.82476641 2.78307757 0.90820312 2.81640625 C-0.38867935 2.80346779 -0.38867935 2.80346779 -1.71176147 2.79026794 C-6.79451868 2.86693957 -6.79451868 2.86693957 -10.74249268 6.01704407 C-11.45148712 7.23414314 -11.45148712 7.23414314 -12.17480469 8.47583008 C-12.50480469 7.48583008 -12.83480469 6.49583008 -13.17480469 5.47583008 C-10.04818181 -0.61607612 -6.13164673 -0.19172988 0 0 Z " fill="#FB685B" transform="translate(725.1748046875,142.524169921875)"/>
<path d="M0 0 C1.9375 0.375 1.9375 0.375 4 1 C5.19791173 3.39582346 5.1206744 4.86777538 5.11352539 7.54150391 C5.11344986 8.48232819 5.11337433 9.42315247 5.11329651 10.39248657 C5.10813522 11.41023163 5.10297394 12.42797668 5.09765625 13.4765625 C5.0962413 14.51694672 5.09482635 15.55733093 5.09336853 16.62924194 C5.08775866 19.96119021 5.07520447 23.29307195 5.0625 26.625 C5.05748627 28.88020736 5.05292314 31.13541578 5.04882812 33.390625 C5.03778603 38.92710614 5.02103827 44.46354832 5 50 C4.01 50 3.02 50 2 50 C2.00444122 49.44733963 2.00888245 48.89467926 2.01345825 48.32527161 C2.05775014 42.56640207 2.08789076 36.80758103 2.10986328 31.04858398 C2.11991265 28.90012649 2.13355433 26.75168263 2.15087891 24.60327148 C2.17517376 21.51282378 2.18649386 18.42255713 2.1953125 15.33203125 C2.20563507 14.37351761 2.21595764 13.41500397 2.22659302 12.42744446 C2.22736062 7.85139249 2.20761889 4.14405967 0 0 Z " fill="#FE443C" transform="translate(260,291)"/>
<path d="M0 0 C16.17 0 32.34 0 49 0 C49 0.66 49 1.32 49 2 C32.83 2.33 16.66 2.66 0 3 C0 2.01 0 1.02 0 0 Z " fill="#FF8375" transform="translate(64,142)"/>
<path d="M0 0 C0.66 0.33 1.32 0.66 2 1 C2 3.97 2 6.94 2 10 C1.67 10 1.34 10 1 10 C0.505 6.535 0.505 6.535 0 3 C-15.84 3 -31.68 3 -48 3 C-48 2.67 -48 2.34 -48 2 C-32.16 2 -16.32 2 0 2 C0 1.34 0 0.68 0 0 Z " fill="#FA6759" transform="translate(113,142)"/>
<path d="M0 0 C2 1 2 1 3.125 3.375 C4 6 4 6 4 9 C4.66 9 5.32 9 6 9 C6.25523437 9.90492188 6.25523437 9.90492188 6.515625 10.828125 C7.93548248 15.51063372 9.03218406 18.85311149 13 22 C12.34 22.33 11.68 22.66 11 23 C6.38514762 19.91819057 4.55471323 16.5744845 2.6875 11.5 C2.42388672 10.83613281 2.16027344 10.17226563 1.88867188 9.48828125 C0.57952035 6.08108688 0 3.69829277 0 0 Z " fill="#FE6F60" transform="translate(627,320)"/>
<path d="M0 0 C4.60416626 0.60875755 8.56483324 1.84722956 12.875 3.5625 C14.02742188 4.01753906 15.17984375 4.47257812 16.3671875 4.94140625 C17.67042969 5.46541016 17.67042969 5.46541016 19 6 C19 6.66 19 7.32 19 8 C11.83292123 7.67422369 6.23072876 4.34556372 0 1 C0 0.67 0 0.34 0 0 Z " fill="#FE7465" transform="translate(86,334)"/>
<path d="M0 0 C3.26304631 0.93778306 4.69688837 1.53522883 6.58203125 4.42578125 C6.98808594 5.37839844 7.39414062 6.33101562 7.8125 7.3125 C8.23144531 8.25738281 8.65039062 9.20226562 9.08203125 10.17578125 C9.99312807 12.97885784 10.18629959 15.0777579 10 18 C6.49221789 13.79066147 3 8.5744558 3 3 C1.68 2.34 0.36 1.68 -1 1 C-0.67 0.67 -0.34 0.34 0 0 Z " fill="#FE7265" transform="translate(607,143)"/>
<path d="M0 0 C0.66 0 1.32 0 2 0 C2.99 2.97 3.98 5.94 5 9 C5.66 9 6.32 9 7 9 C7 8.34 7 7.68 7 7 C7.66 7 8.32 7 9 7 C8.625 9.4375 8.625 9.4375 8 12 C7.01 12.495 7.01 12.495 6 13 C2.67467889 10.30807339 1.47545057 6.93453485 0 3 C0 2.01 0 1.02 0 0 Z " fill="#FE6E61" transform="translate(657,263)"/>
<path d="M0 0 C0.66 0 1.32 0 2 0 C1.34362284 3.98988812 0.12232204 7.46151561 -1.4375 11.1875 C-1.86933594 12.23292969 -2.30117188 13.27835937 -2.74609375 14.35546875 C-4 17 -4 17 -6 19 C-5.52877252 12.0886636 -2.79363994 6.27795839 0 0 Z " fill="#FF7365" transform="translate(672,250)"/>
<path d="M0 0 C1.01299606 2.65602626 1.07672553 3.78395707 0.109375 6.5078125 C-0.33921875 7.37148438 -0.7878125 8.23515625 -1.25 9.125 C-1.68828125 9.99382812 -2.1265625 10.86265625 -2.578125 11.7578125 C-4 14 -4 14 -7 16 C-9.1875 15.625 -9.1875 15.625 -11 15 C-10.113125 14.566875 -9.22625 14.13375 -8.3125 13.6875 C-3.53246248 10.58785572 -1.98913208 5.10485224 0 0 Z " fill="#FF7063" transform="translate(695,327)"/>
<path d="M0 0 C0.66 0 1.32 0 2 0 C0.13236819 5.72210596 -1.85289032 11.37661751 -4 17 C-4.66 17 -5.32 17 -6 17 C-4.33846988 11.14340094 -2.52958084 5.5409866 0 0 Z " fill="#FE7363" transform="translate(720,263)"/>
<path d="M0 0 C0.66 0 1.32 0 2 0 C2.8394882 2.10171867 3.67139656 4.20646625 4.5 6.3125 C5.19609375 8.07013672 5.19609375 8.07013672 5.90625 9.86328125 C7 13 7 13 7 16 C6.34 16 5.68 16 5 16 C4.1605118 13.89828133 3.32860344 11.79353375 2.5 9.6875 C2.0359375 8.51574219 1.571875 7.34398437 1.09375 6.13671875 C0 3 0 3 0 0 Z " fill="#FE7265" transform="translate(579,199)"/>
<path d="M0 0 C1.6852084 4.07679159 0.16939007 6.83075593 -1.4375 10.75 C-1.91058594 11.92046875 -2.38367188 13.0909375 -2.87109375 14.296875 C-3.24363281 15.18890625 -3.61617187 16.0809375 -4 17 C-4.66 17 -5.32 17 -6 17 C-4.33846988 11.14340094 -2.52958084 5.5409866 0 0 Z " fill="#FF7266" transform="translate(705,301)"/>
<path d="M0 0 C2.50298434 2.93828597 3.46930939 5.17902761 4 9 C4.66 9 5.32 9 6 9 C6 10.65 6 12.3 6 14 C5.34 14 4.68 14 4 14 C3.32471777 12.42032193 2.66010306 10.83608097 2 9.25 C1.62875 8.36828125 1.2575 7.4865625 0.875 6.578125 C0 4 0 4 0 0 Z " fill="#FE7463" transform="translate(605,264)"/>
<path d="M0 0 C2.92586433 1.46293216 3.05946588 3.40270098 4.125 6.4375 C4.47820313 7.42621094 4.83140625 8.41492188 5.1953125 9.43359375 C6 12 6 12 6 14 C5.34 14 4.68 14 4 14 C2.35 9.71 0.7 5.42 -1 1 C-0.67 0.67 -0.34 0.34 0 0 Z " fill="#FF7365" transform="translate(594,236)"/>
<path d="M0 0 C0.66 0 1.32 0 2 0 C2.36802974 5.39776952 2.36802974 5.39776952 0.625 8.25 C-0.55800087 9.52400094 -1.77065679 10.77065679 -3 12 C-2.49202991 7.6822542 -1.80317221 3.96697886 0 0 Z " fill="#FE7362" transform="translate(691,202)"/>
<path d="M0 0 C0.66 0.66 1.32 1.32 2 2 C0.68 5.3 -0.64 8.6 -2 12 C-2.99 12 -3.98 12 -5 12 C-5 11.01 -5 10.02 -5 9 C-4.34 9 -3.68 9 -3 9 C-2.01 6.03 -1.02 3.06 0 0 Z " fill="#FE7061" transform="translate(728,243)"/>
<path d="M0 0 C0.66 0 1.32 0 2 0 C1.731875 0.515625 1.46375 1.03125 1.1875 1.5625 C-0.32349407 4.66401415 -1.65572726 7.82262806 -3 11 C-3.66 11 -4.32 11 -5 11 C-3.04225352 3.16901408 -3.04225352 3.16901408 0 0 Z " fill="#FE7261" transform="translate(749,193)"/>
<path d="M0 0 C1 3 1 3 0.22265625 5.04296875 C-0.16019531 5.75066406 -0.54304687 6.45835937 -0.9375 7.1875 C-1.31777344 7.90292969 -1.69804688 8.61835938 -2.08984375 9.35546875 C-2.54037109 10.16951172 -2.54037109 10.16951172 -3 11 C-4.06192476 7.73635123 -4.07454186 7.17280159 -2.625 3.8125 C-1 1 -1 1 0 0 Z " fill="#FE7164" transform="translate(700,182)"/>
<path d="M0 0 C4.20626034 1.50223584 5.73900021 4.28550034 8 8 C6.25 7.9375 6.25 7.9375 4 7 C2.40498463 4.75835678 1.25456982 2.46433357 0 0 Z " fill="#FE6D60" transform="translate(71,319)"/>
<path d="M0 0 C0.99 0 1.98 0 3 0 C3 2 3 2 1.125 4 C0.42375 4.66 -0.2775 5.32 -1 6 C-1.66 6.66 -2.32 7.32 -3 8 C-3.33 7.01 -3.66 6.02 -4 5 C-2.25 2.3125 -2.25 2.3125 0 0 Z " fill="#FF7568" transform="translate(716,143)"/>
<path d="M0 0 C0.33 0 0.66 0 1 0 C0.54177532 3.46941546 0.10868317 6.67395049 -1 10 C-1.66 10 -2.32 10 -3 10 C-2.39009109 6.44219804 -1.4216319 3.3171411 0 0 Z " fill="#FE7362" transform="translate(738,217)"/>
<path d="M0 0 C0.99 0 1.98 0 3 0 C2.38722388 2.96175123 1.74627478 4.38058783 0 7 C-0.66 7 -1.32 7 -2 7 C-1.34 4.69 -0.68 2.38 0 0 Z " fill="#FD675B" transform="translate(694,194)"/>
<path d="M0 0 C0.33 0.66 0.66 1.32 1 2 C1.66 2 2.32 2 3 2 C3.33 4.31 3.66 6.62 4 9 C3.34 9 2.68 9 2 9 C0.50178941 5.62902617 0 3.79557881 0 0 Z " fill="#FE7062" transform="translate(622,307)"/>
<path d="M0 0 C2 1 2 1 2.6328125 2.84765625 C2.79523437 3.57855469 2.95765625 4.30945313 3.125 5.0625 C3.29257812 5.79597656 3.46015625 6.52945312 3.6328125 7.28515625 C3.75398437 7.85105469 3.87515625 8.41695313 4 9 C3.34 9 2.68 9 2 9 C1.01 6.36 0.02 3.72 -1 1 C-0.67 0.67 -0.34 0.34 0 0 Z " fill="#FE7265" transform="translate(615,289)"/>
<path d="M0 0 C2.56864728 1.28432364 2.946539 2.36634751 4 5 C4 6.32 4 7.64 4 9 C3.34 9 2.68 9 2 9 C0.50178941 5.62902617 0 3.79557881 0 0 Z " fill="#FE725F" transform="translate(601,254)"/>
<path d="M0 0 C2.79872437 2.52788007 4.45773019 4.20411134 5 8 C4.01 8 3.02 8 2 8 C0.74335022 5.09399739 0 3.20395416 0 0 Z " fill="#FF6659" transform="translate(649,243)"/>
<path d="M0 0 C1.0326802 2.78823655 1.04509293 3.8677274 0.0625 6.75 C-0.288125 7.4925 -0.63875 8.235 -1 9 C-1.66 9 -2.32 9 -3 9 C-2.44271087 5.65626525 -1.64826111 2.96687001 0 0 Z " fill="#FE7364" transform="translate(734,228)"/>
<path d="M0 0 C0.66 0 1.32 0 2 0 C2.99 2.64 3.98 5.28 5 8 C4.01 8.495 4.01 8.495 3 9 C0 3.375 0 3.375 0 0 Z " fill="#FF7764" transform="translate(625,182)"/>
<path d="M0 0 C0.33 0.66 0.66 1.32 1 2 C0.06421005 4.35981813 -0.93347808 6.69631264 -2 9 C-2.33 9 -2.66 9 -3 9 C-2.25 2.25 -2.25 2.25 0 0 Z " fill="#FE7365" transform="translate(709,159)"/>
</svg>
